<?xml version="1.0" standalone="no"?>
<!DOCTYPE svg PUBLIC "-//W3C//DTD SVG 20010904//EN"
 "http://www.w3.org/TR/2001/REC-SVG-20010904/DTD/svg10.dtd">
<svg version="1.0" xmlns="http://www.w3.org/2000/svg"
 width="1272.000000pt" height="1272.000000pt" viewBox="0 0 1272.000000 1272.000000"
 preserveAspectRatio="xMidYMid meet">
<metadata>
Created by potrace 1.11, written by Peter Selinger 2001-2013
</metadata>
<g transform="translate(0.000000,1272.000000) scale(0.100000,-0.100000)"
fill="#000000" stroke="none">
<path d="M6688 12714 c-2 -1 -23 -5 -48 -9 -111 -16 -145 -22 -210 -40 -30 -9
-62 -17 -70 -19 -38 -9 -208 -79 -278 -115 -130 -65 -355 -211 -402 -261 -3
-3 -34 -30 -70 -60 -208 -175 -422 -423 -607 -705 -40 -60 -79 -119 -88 -130
-8 -10 -15 -23 -15 -28 0 -5 -8 -21 -19 -35 -35 -51 -241 -448 -241 -465 0 -3
-15 -38 -34 -79 -59 -126 -210 -528 -220 -583 -1 -5 -6 -23 -12 -40 -14 -37
-44 -139 -49 -166 -2 -10 -6 -23 -9 -27 -3 -5 -8 -22 -11 -38 -7 -33 -10 -43
-18 -64 -5 -14 -65 -263 -73 -305 -2 -11 -6 -30 -9 -42 -14 -61 -31 -149 -40
-198 -2 -16 -9 -55 -15 -85 -5 -30 -12 -71 -15 -90 -3 -19 -7 -46 -10 -60 -6
-33 -13 -75 -19 -125 -3 -22 -8 -58 -11 -80 -2 -22 -7 -62 -10 -90 -3 -27 -8
-61 -10 -75 -2 -14 -7 -59 -10 -100 -3 -41 -8 -97 -11 -124 -17 -157 -24 -884
-11 -1101 8 -130 24 -324 33 -400 1 -16 5 -52 8 -79 3 -27 8 -70 11 -95 3 -25
8 -64 11 -86 2 -22 6 -51 8 -65 11 -78 18 -121 26 -170 10 -57 15 -89 26 -175
3 -27 10 -57 15 -66 4 -9 6 -19 3 -21 -2 -3 0 -27 7 -54 6 -27 13 -62 15 -79
3 -16 12 -62 20 -102 7 -39 17 -88 20 -109 3 -20 8 -46 11 -58 17 -72 29 -125
38 -171 6 -28 14 -65 21 -100 4 -16 8 -37 9 -45 1 -8 5 -22 8 -30 5 -13 19
-72 33 -140 2 -14 7 -31 10 -39 2 -8 14 -55 25 -105 11 -50 22 -98 25 -106 54
-210 76 -298 79 -312 2 -9 11 -41 19 -70 22 -76 67 -240 71 -258 2 -8 24 -91
49 -184 26 -93 53 -192 61 -220 8 -28 26 -94 40 -146 15 -52 29 -103 30 -113
2 -9 6 -21 9 -25 3 -5 7 -19 10 -33 3 -13 14 -55 26 -94 11 -38 22 -79 25 -90
2 -11 11 -45 20 -75 9 -30 23 -77 30 -105 7 -27 18 -65 24 -82 5 -18 8 -33 5
-33 -2 0 2 -13 11 -30 9 -16 13 -30 11 -30 -3 0 2 -19 10 -42 9 -24 17 -47 18
-53 3 -12 15 -42 26 -70 5 -11 19 -47 31 -80 26 -67 71 -131 98 -140 42 -13
94 30 200 165 27 36 59 76 70 90 11 14 55 70 98 125 43 55 114 146 158 202 44
56 90 114 102 130 12 15 31 38 42 50 12 12 21 25 21 27 0 5 19 31 45 60 6 6
62 78 125 160 63 81 135 174 160 206 54 68 70 90 151 200 35 47 66 87 69 90 3
3 18 23 35 45 16 22 33 45 37 50 5 6 33 44 63 85 29 41 58 80 62 85 5 6 20 26
33 45 13 19 28 40 33 45 4 6 30 42 57 80 28 39 53 75 58 80 4 6 28 39 52 75
25 36 47 67 50 70 10 10 56 78 202 295 81 121 152 225 158 232 5 7 10 17 10
22 0 5 6 16 13 23 7 7 35 49 62 93 27 44 52 82 55 85 11 10 200 331 200 341 0
5 3 9 8 9 4 0 20 26 36 58 16 31 36 65 44 75 8 9 11 17 6 17 -5 0 -4 4 1 8 10
7 48 72 70 119 5 13 13 23 18 23 4 0 7 9 7 20 0 10 8 24 18 29 9 6 14 11 10
11 -4 0 8 29 27 65 52 98 170 329 170 335 0 3 13 29 28 58 15 30 27 60 27 68
0 8 5 14 10 14 6 0 10 8 10 18 0 10 4 22 8 27 9 10 103 223 117 265 2 7 12 31
47 117 16 40 31 78 32 85 1 7 7 23 14 35 7 12 12 26 12 32 0 5 5 22 12 38 6
15 12 33 14 38 2 6 26 78 54 160 28 83 53 157 55 165 1 8 17 62 33 120 26 89
57 207 66 253 2 7 6 19 9 27 3 8 11 40 16 70 6 30 17 87 25 125 8 39 17 84 20
100 3 17 8 41 12 55 3 14 7 36 8 50 2 14 6 39 9 55 4 17 9 48 12 70 3 22 9 56
11 75 8 53 20 143 29 220 3 25 8 68 11 95 33 286 39 860 10 1110 -2 17 -7 62
-11 100 -4 39 -9 84 -12 100 -2 17 -6 44 -8 60 -5 43 -15 96 -22 125 -3 14 -7
36 -8 50 -2 14 -6 36 -9 50 -4 14 -8 36 -11 50 -12 62 -17 80 -40 165 -14 50
-27 95 -28 100 -1 6 -6 16 -10 23 -5 6 -6 12 -3 12 4 0 -51 161 -92 265 -55
143 -150 327 -237 460 -25 38 -132 181 -165 220 -51 61 -198 201 -251 241
-108 80 -134 99 -154 110 -116 64 -161 87 -230 114 -44 18 -87 33 -95 35 -8 2
-27 8 -42 14 -75 29 -249 53 -400 55 -87 2 -159 2 -160 0z"/>
<path d="M5305 12633 c-11 -3 -44 -13 -73 -24 -28 -10 -55 -19 -60 -20 -8 -2
-12 -3 -72 -23 -47 -15 -152 -54 -205 -76 -16 -7 -34 -14 -40 -15 -5 -2 -37
-15 -70 -30 -33 -16 -62 -29 -65 -29 -69 -18 -596 -319 -608 -348 -2 -5 -8 -8
-13 -8 -6 0 -15 -4 -22 -10 -7 -5 -41 -31 -77 -57 -36 -26 -70 -52 -76 -58 -6
-5 -23 -19 -38 -30 -41 -30 -136 -111 -237 -203 -64 -58 -255 -255 -289 -298
-52 -66 -106 -129 -112 -132 -5 -2 -8 -8 -8 -13 0 -5 -8 -18 -17 -28 -33 -36
-43 -50 -43 -60 0 -5 -4 -11 -8 -13 -4 -1 -28 -32 -52 -68 -25 -36 -48 -66
-52 -68 -5 -2 -8 -8 -8 -13 0 -5 -19 -39 -43 -76 -89 -139 -273 -502 -282
-558 -2 -12 -19 -56 -41 -105 -8 -20 -16 -42 -17 -50 -2 -8 -6 -21 -10 -27 -5
-7 -6 -13 -3 -13 3 0 -3 -20 -14 -45 -11 -25 -17 -45 -15 -45 3 0 -1 -15 -8
-33 -20 -47 -83 -312 -92 -384 -2 -17 -8 -49 -14 -70 -5 -21 -12 -65 -16 -98
-3 -33 -8 -73 -11 -90 -35 -207 -41 -885 -10 -1065 5 -25 12 -84 21 -175 3
-27 10 -70 15 -95 5 -25 11 -61 14 -80 3 -19 7 -46 10 -60 3 -13 8 -42 12 -64
3 -22 7 -44 10 -47 2 -4 6 -24 10 -45 3 -22 24 -109 45 -194 22 -85 42 -163
44 -174 2 -10 20 -69 40 -131 19 -61 35 -115 35 -118 0 -15 157 -449 185 -512
7 -16 27 -66 45 -110 31 -80 40 -101 79 -187 11 -26 21 -50 21 -52 0 -3 25
-57 55 -121 30 -65 55 -119 55 -122 0 -24 472 -943 530 -1033 13 -20 28 -53
28 -64 0 -5 4 -12 9 -15 12 -8 123 -207 123 -220 0 -6 5 -11 10 -11 6 0 10 -4
10 -9 0 -5 32 -64 70 -131 39 -67 70 -126 70 -131 0 -5 4 -9 8 -9 4 0 13 -12
20 -28 14 -33 53 -100 98 -170 32 -48 37 -52 74 -52 46 0 80 29 80 69 0 26
-56 188 -73 208 -5 7 -7 13 -4 13 3 0 -4 24 -15 53 -11 28 -42 115 -69 192
-28 77 -57 158 -65 180 -8 22 -17 47 -19 55 -4 17 -99 287 -109 310 -3 8 -7
24 -9 35 -2 11 -7 27 -10 35 -3 8 -20 60 -37 115 -17 55 -34 107 -38 115 -3 8
-7 20 -8 25 -1 6 -3 13 -4 18 -1 4 -3 10 -4 15 -5 20 -38 129 -43 142 -3 8 -7
20 -8 25 -2 6 -9 30 -16 55 -7 25 -12 48 -11 53 1 4 -3 7 -10 7 -6 0 -9 3 -6
6 4 3 2 20 -3 37 -6 18 -12 43 -15 57 -2 14 -9 36 -14 50 -9 24 -61 226 -73
280 -3 14 -15 63 -27 110 -12 47 -23 94 -25 105 -1 11 -7 40 -13 65 -6 25 -13
59 -16 75 -7 37 -17 86 -20 100 -2 6 -7 33 -11 60 -5 28 -10 52 -10 55 -11 39
-27 134 -40 225 -2 17 -7 41 -10 55 -3 14 -8 48 -11 75 -3 28 -8 64 -10 80 -2
17 -6 50 -9 75 -2 25 -7 65 -10 90 -8 60 -17 162 -32 345 -14 177 -6 851 13
1020 2 22 7 67 10 100 3 33 7 74 9 90 2 17 7 50 10 75 3 25 7 59 10 75 3 17 8
52 11 79 3 28 7 53 10 57 2 4 7 31 10 61 3 29 8 57 11 61 2 4 7 24 9 45 3 20
7 45 10 54 3 10 7 29 10 43 10 57 21 110 29 135 3 10 8 27 10 37 10 50 27 115
45 178 12 39 23 81 26 95 3 13 10 30 16 37 6 7 8 13 5 13 -3 0 7 36 23 79 15
44 26 82 22 85 -3 3 -1 6 5 6 6 0 13 13 16 29 3 15 17 53 31 84 15 31 26 60
26 65 0 9 27 70 87 202 62 136 182 364 194 368 5 2 9 8 9 14 0 10 95 172 113
193 4 6 27 39 50 75 23 37 51 78 62 92 11 14 27 36 35 48 19 28 160 211 174
226 6 6 20 23 31 38 11 15 31 40 45 55 281 310 437 456 702 658 54 40 102 81
107 91 27 52 -27 126 -84 115z"/>
<path d="M8705 11952 c-30 -6 -53 -31 -60 -63 -7 -30 -1 -42 108 -229 24 -43
139 -271 160 -320 8 -19 26 -60 39 -90 14 -30 37 -89 52 -130 16 -41 34 -88
41 -105 7 -16 16 -41 20 -55 3 -14 10 -34 15 -45 11 -27 58 -183 66 -220 4
-16 9 -34 13 -40 3 -5 6 -14 7 -20 1 -5 14 -59 29 -120 15 -60 28 -119 30
-130 2 -11 6 -31 9 -45 3 -14 8 -38 10 -55 2 -16 9 -50 14 -75 10 -43 19 -102
28 -180 4 -39 13 -110 20 -155 15 -107 29 -728 17 -749 -3 -4 -7 -43 -9 -85
-1 -42 -5 -92 -7 -111 -3 -19 -8 -66 -12 -105 -4 -38 -9 -79 -11 -90 -2 -11
-6 -38 -9 -60 -3 -22 -7 -47 -10 -55 -5 -16 -10 -47 -20 -120 -4 -24 -8 -47
-10 -51 -2 -3 -7 -21 -10 -40 -3 -19 -20 -90 -37 -159 -16 -69 -31 -129 -32
-135 -6 -24 -29 -105 -46 -160 -21 -70 -64 -208 -65 -215 -1 -3 -4 -12 -7 -20
-4 -8 -19 -51 -34 -95 -15 -44 -32 -91 -37 -105 -6 -14 -11 -27 -12 -30 -1 -3
-6 -16 -12 -30 -6 -14 -25 -63 -43 -110 -18 -47 -46 -113 -62 -148 -15 -34
-47 -104 -69 -155 -50 -113 -152 -320 -161 -327 -3 -3 -9 -17 -13 -32 -4 -15
-13 -32 -21 -39 -8 -6 -14 -16 -14 -21 0 -5 -29 -60 -65 -123 -36 -63 -65
-117 -65 -120 0 -2 -17 -31 -37 -62 -21 -32 -46 -74 -56 -93 -21 -38 -171
-279 -184 -295 -5 -5 -28 -41 -53 -80 -24 -38 -47 -72 -50 -75 -3 -3 -30 -42
-60 -87 -30 -46 -58 -83 -62 -83 -5 0 -8 -7 -8 -15 0 -8 -4 -15 -10 -15 -5 0
-10 -7 -10 -15 0 -8 -4 -15 -10 -15 -5 0 -10 -4 -10 -9 0 -6 -180 -257 -227
-316 -5 -5 -49 -62 -98 -125 -82 -105 -176 -223 -208 -260 -7 -8 -42 -51 -77
-95 -36 -44 -69 -85 -75 -91 -5 -6 -30 -35 -55 -64 -61 -72 -312 -362 -325
-376 -5 -6 -39 -44 -75 -84 -36 -40 -83 -92 -105 -116 -22 -23 -65 -70 -95
-104 -30 -35 -60 -68 -67 -75 -26 -28 -16 -92 18 -113 37 -23 55 -21 102 11
72 51 172 129 175 139 2 4 10 8 17 8 7 0 15 3 17 8 2 4 57 50 123 102 66 52
122 97 125 100 3 3 27 24 55 45 27 22 55 45 62 50 7 6 18 15 25 20 51 40 194
161 196 167 2 5 10 8 17 8 7 0 15 4 17 9 3 8 35 36 148 131 51 43 125 107 160
140 9 8 36 31 60 51 25 20 64 54 86 75 23 22 79 73 124 114 258 233 618 593
810 811 36 40 76 85 90 100 14 15 43 48 65 75 22 26 56 67 75 90 19 23 46 56
60 74 14 17 35 44 48 58 12 15 35 45 50 67 15 22 30 41 34 43 4 2 26 31 49 65
24 34 48 67 55 74 7 7 22 29 35 50 13 21 26 40 29 43 8 6 172 255 194 295 9
17 28 48 42 70 13 22 34 59 45 83 11 23 25 42 31 42 6 0 8 3 5 7 -4 3 -3 11 2
17 20 25 199 392 200 411 0 3 8 19 16 35 37 71 166 443 179 515 3 14 7 29 11
35 3 5 8 18 10 27 2 10 13 61 25 113 30 132 29 130 35 175 3 22 8 47 10 55 6
21 12 64 21 135 3 33 8 69 11 80 23 113 22 666 -1 795 -3 14 -7 48 -11 75 -8
73 -18 133 -29 185 -3 14 -9 41 -12 60 -5 30 -43 180 -75 300 -5 19 -11 43
-14 52 -2 9 -9 26 -15 37 -6 12 -8 21 -4 21 3 0 2 6 -4 13 -6 6 -11 17 -11 22
-1 10 -25 79 -41 120 -41 103 -86 208 -105 246 -13 26 -21 49 -18 53 4 3 1 6
-5 6 -7 0 -12 8 -12 19 0 10 -7 24 -15 31 -8 7 -15 18 -15 24 0 32 -228 406
-339 556 -55 75 -51 69 -98 127 -24 28 -43 54 -43 57 0 3 -12 18 -27 34 -16
16 -57 62 -93 102 -83 94 -225 236 -320 320 -40 36 -78 70 -84 75 -26 24 -92
72 -106 76 -8 3 -24 3 -35 1z"/>
<path d="M4022 2221 c-57 -21 -105 -61 -126 -105 -19 -41 -22 -69 -31 -276 -4
-80 -8 -190 -11 -245 -2 -55 -6 -149 -9 -210 -2 -60 -5 -110 -5 -110 -1 0 -6
-102 -14 -300 -3 -55 -8 -165 -12 -245 -9 -173 -9 -297 -1 -328 11 -43 60 -98
115 -129 21 -13 79 -29 137 -39 17 -3 46 -9 65 -14 19 -5 53 -12 75 -16 22 -3
67 -12 100 -21 33 -8 67 -15 75 -15 8 0 29 -4 45 -9 17 -5 48 -11 70 -14 22
-4 58 -11 80 -17 22 -5 51 -12 65 -14 14 -3 93 -19 175 -35 83 -17 158 -33
168 -35 10 -2 26 -5 35 -8 9 -3 33 -8 52 -10 19 -3 46 -8 60 -11 60 -16 176
-17 210 -3 48 20 93 60 112 100 14 27 69 169 74 188 0 3 3 12 7 20 5 14 236
632 257 690 5 14 15 39 21 55 7 17 13 32 13 35 1 3 15 39 30 80 16 41 29 80
29 87 0 7 4 13 9 13 4 0 7 3 6 8 -2 7 20 67 68 189 14 34 27 71 29 82 2 11 8
29 14 40 13 23 16 84 8 120 -12 46 -79 131 -104 131 -7 0 -13 4 -13 9 0 10
-119 45 -127 37 -4 -3 -11 -2 -17 3 -6 5 -29 12 -51 15 -22 3 -58 10 -80 16
-22 6 -58 13 -80 16 -22 3 -53 10 -70 15 -16 5 -43 11 -60 13 -16 3 -97 19
-180 36 -185 39 -160 34 -345 71 -85 17 -164 33 -175 36 -11 2 -29 6 -40 8
-11 2 -54 11 -95 20 -41 9 -86 18 -100 21 -14 2 -45 9 -70 14 -25 5 -56 12
-70 14 -14 2 -60 12 -103 21 -109 22 -165 24 -215 6z"/>
</g>
</svg>
