<?xml version="1.0" standalone="no"?>
<!DOCTYPE svg PUBLIC "-//W3C//DTD SVG 20010904//EN"
 "http://www.w3.org/TR/2001/REC-SVG-20010904/DTD/svg10.dtd">
<svg version="1.0" xmlns="http://www.w3.org/2000/svg"
 width="260.000000pt" height="260.000000pt" viewBox="0 0 260.000000 260.000000"
 preserveAspectRatio="xMidYMid meet">
<metadata>
Created by potrace 1.11, written by Peter Selinger 2001-2013
</metadata>
<g transform="translate(0.000000,260.000000) scale(0.100000,-0.100000)"
fill="#000000" stroke="none">
<path d="M1132 2590 c-301 -43 -565 -179 -775 -400 -171 -180 -278 -385 -333
-641 -26 -118 -26 -380 0 -498 59 -273 167 -474 360 -667 193 -193 394 -301
667 -360 118 -26 380 -26 498 0 273 59 474 167 667 360 193 193 301 394 360
667 14 62 18 127 18 249 0 122 -4 187 -18 249 -59 273 -167 474 -360 667 -190
189 -384 296 -646 355 -98 22 -340 33 -438 19z m253 -439 c44 -20 86 -61 109
-105 l14 -28 16 30 c33 65 104 81 167 39 49 -32 71 -81 63 -137 -7 -54 -105
-451 -169 -684 -25 -93 -44 -174 -42 -179 4 -13 96 63 144 119 59 71 144 205
197 312 26 51 52 92 60 92 39 0 80 -78 72 -136 -16 -123 -175 -365 -326 -500
-65 -58 -104 -83 -166 -108 l-55 -21 -34 -102 c-50 -149 -98 -244 -158 -309
-58 -64 -96 -84 -159 -84 -68 0 -117 18 -163 61 -51 47 -75 107 -75 189 0 167
90 267 312 345 76 27 78 29 89 69 5 22 14 57 20 76 14 53 12 55 -28 20 -108
-95 -245 -93 -330 4 -51 57 -75 135 -81 263 -12 266 79 524 241 684 55 54 88
75 152 95 56 18 84 17 130 -5z"/>
<path d="M1281 1875 c-99 -89 -177 -350 -142 -474 3 -13 18 -33 32 -44 24 -18
28 -18 56 -3 35 17 82 87 112 163 54 139 80 320 52 371 -18 34 -63 29 -110
-13z"/>
<path d="M1142 703 c-29 -19 -61 -48 -73 -64 -22 -31 -28 -84 -12 -100 19 -19
57 -5 80 29 21 32 69 160 62 167 -2 2 -28 -13 -57 -32z"/>
</g>
</svg>
