<?xml version="1.0" encoding="utf-8"?>
<!-- Generator: Adobe Illustrator 19.0.0, SVG Export Plug-In . SVG Version: 6.00 Build 0)  -->
<svg version="1.1" id="Calque_1" xmlns="http://www.w3.org/2000/svg" xmlns:xlink="http://www.w3.org/1999/xlink" x="0px" y="0px"
	 viewBox="254 271.6 1119.1 251.4" style="enable-background:new 254 271.6 1119.1 251.4;" xml:space="preserve">
<style type="text/css">
	.st0{fill:#FFFFFF;}
</style>
<path class="st0" d="M760.7,378.6c1.8-2.2,3.4-4.4,5.2-6.4c2.5-2.8,5.7-4.5,9.7-4c1.5,0.2,2.4-0.3,2.8-2c1.3-5.5,2.8-11,4.4-16.5
	c1-4,2.5-8,3.8-12c1.2-4,2.2-7.7,3.5-11.4l5-13.6c0.7-1.5,1.6-2.8,2-4.3c1.5-5,5.5-7,10-7.4c8-1,16-0.7,23.2,3c6,3,7.3,5.8,5.5,10.7
	c-0.7,2-2,3.6-3,5.4c-2,4-3.8,8.2-5.5,12.4c-2,4.6-3.7,9.3-5.4,14l-3.6,11.4l-2.4,7l-0.6,2.7c-0.4,1.6,0.4,2.2,2,2.2l9.7,0.3
	c4.7,0,5.7,2,4,6.2c-1.4,3.8-3.6,7-6.4,10c-3,3-6.6,3-10.4,2.6c-4.3-0.4-5.4,0.7-6,5c-0.8,4.3-2,8.5-2.7,12.8
	c-1.5,9.5-2.7,19-1.7,28.4c0.2,1.8,1,3.7,2,5.4c2.6,5,7.7,5.8,13,2c5.7-4.2,10-9.7,13.4-15.8c4-7,8-14.4,11.5-22
	c2.7-5.8,4.7-12,6.7-18.2c1.6-4.7,2.7-9.5,4-14.2c0.6-1.7,0-3-1.4-3.8c-6-3.4-9-8.6-8.8-15.6c0-4.2-0.4-8.6,0.3-12.7
	c1.3-7,3.2-13.7,8.5-19c3.6-3.5,8.4-3.3,12.3-1.8c6.6,2.6,9.2,8,10.7,14.7c1.4,6.3,0,12.2-0.5,18.3c-0.2,2.6-1,5.2-2,7.6
	c-1,2-0.2,3,1.5,3.3l8.8,1.8l16.4,3c6,1.3,10.4,6.5,11.8,12.4c1,4.6,0,8.6-1.4,12.8c-1.3,4-2.3,8-3.5,12l-3.8,12c-0.8,3-1.5,6-2,8.8
	c-0.6,3.2-1.3,6.4-1.4,9.6c-0.4,8.4,5.4,11.7,12,7.2c3.8-2.6,6.7-6.4,9.8-9.8c0.5-0.5,0.5-1.7,0.4-2.6c-0.3-3.7-1.2-7.4-1-11
	c0-6,0.2-12,1.6-18c2.6-11,6.7-21.3,12.7-31c4.7-7.3,9.8-14.3,17-19.4c2.8-2,6.3-3.5,9.7-4.6c3.4-1.2,6,1,8,3.3
	c4,5,5.6,10.5,4.6,16.6c-0.2,1.5-1.3,3-2.2,4.4c-4.4,6-7.7,12.7-10,20l-4.4,15.8c-2.3,8-3.2,16-2.7,24.4c0.2,4,1.3,7.8,3.3,11.3
	c2.7,4.5,8,5.6,12,2c3.2-3.4,6-7.2,8.5-11.3c2.5-4.2,4-8.8,6-13.3c0.8-2,1.3-4,1.8-6s0-3.8-1.4-5.5c-3-3.5-4.8-7.7-6.2-12.3
	c-2.2-7-2-14.2-1-21c1.3-9.8,5-19,13.5-25c8.8-6.3,18.3-4,23.7,5.3c2.2,3.7,3.6,7.7,4.7,12c2.5,9,1.5,18.4,1.4,27.7
	c0,5.6,0,5.6,5,3.8c6-2,11-5.5,15.3-9.8l1.5-2l-2.7-0.6h-5c-4.7-0.2-6.3-3.2-4-7.3c2-4,4.7-7.6,9-9.6c1.7-0.8,3.7-1,5.5-1
	c1.5,0,2.5-0.2,3-2c0.7-3.8,1.7-7.5,2.8-11.2c1.2-4.3,2.7-8.5,4-12.7c1.2-3.8,2.2-7.7,3.5-11.6l3.8-10.7c1.6-4,3.5-8,5-12
	c1.6-4.8,5.5-6.7,10-7.2c7.8-1,15.6-0.5,23,2.8c4.8,2.3,7.3,6,6,10.2c-1,2.2-2.4,4-3.4,6c-2,4.3-3.8,8.5-5.6,12.8
	c-2,4.6-3.7,9.3-5.4,14c-1.3,3.6-2.4,7.4-3.6,11l-2.2,6.8l-0.8,3c-0.3,1.6,0.4,2.3,1.8,2.3c2.3,0.2,4.7,0.4,7,0.4
	c3,0,6.3-0.6,8.4,2.7c3.3-3,6.8-5,11.2-4.6c0.6,0,1.7-0.8,1.8-1.4l3-11.4c1.4-4.3,2.8-8.6,4-13c1.3-4,2.3-7.8,3.6-11.6
	c1.2-3.6,2.5-7,4-10.7c1.4-4,3.2-7.7,4.6-11.7c1.7-5,5.7-7,10.3-7.4c7.8-0.8,15.5-0.6,22.8,2.8c6.4,3,7.5,6,5.7,11
	c-0.7,1.8-2,3.5-3,5.3c-2.4,5.5-4.8,11-7,16.6c-2,4.6-3.8,9.4-5.5,14.2c-1.3,3.8-2.4,7.7-3.6,11.6l-1.4,5c-0.4,1.6,0.3,2.3,2,2.4
	l10,0.3c4,0,5.4,2.3,3.6,6c-1,2-2,4.2-3.4,6.2c-3.2,5-7.7,7.5-14,6.5c-4-0.6-4.8,0.2-5.6,4.2c-1,4.8-2.2,9.5-3,14.3
	c-0.7,5.5-1.2,11-1.6,16.6c-0.2,3-0.4,6.4,0,9.5c0.6,3,1.7,6,3.3,8.7c2,3.4,7.3,3.6,11.3,0.4c3.4-2.8,6.4-6.2,9.3-9.5
	c0.8-1,0.6-2.7,0.7-4c0-1.2-0.4-2.4-0.4-3.5c-0.7-7.8-0.2-15.7,1.5-23.3c4.3-18.8,12-35.8,27.7-48c10.2-8.7,22-12.9,35.5-11.9
	c11.2,1,21,5.2,27,15.2c2,3,2.8,6.5,3.8,10c0.7,2.4,1.2,5,1.3,7.7c0.4,5.5-1,10.7-2.4,16c-1.4,5.4-3.6,10.5-6.3,15.4
	c-5.6,10-13.2,18-24,22.7c-6.4,3-13,4.3-20.2,4c-1.6,0-3.3-0.6-5-1c-1.7-0.2-2.5,0.2-2,2.2c1.3,8,8,15.6,16,17.6
	c15.2,3.8,27.4-1.3,38-12c6.4-6.3,11.5-13.6,15.4-21.8c2.8-6,6-11.6,8.5-17.5c2-4.7,3.4-9.6,5-14.4l4-14c0.5-2,0-3.2-1.5-4
	c-6-3.5-9-8.6-8.7-15.4c0-4.2-0.4-8.4,0.3-12.5c1.3-7,3.2-13.8,8.5-19c3.7-3.8,8-3.7,12.3-2.2c6.6,2.4,9.3,8,10.8,14.6
	c1.4,6.3,0,12.2-0.4,18.3c-0.2,2.6-1.2,5-2,7.6c-0.8,2.2-0.6,3,1.8,3.5l19,3.5c5,1,10,1.8,13.6,5.8c4,4.5,5.7,9.6,4,15.4
	c-1.7,6.7-4,13.2-5.8,20l-3.4,12.8c-1,3.4-1.8,6.7-2.5,10c-0.8,4-1,8,1,11.7c1.4,2.2,5.2,3,8.2,1.7c5.5-2.4,9.3-6.7,12.6-11.4
	c3-4,5.5-8.5,8.3-12.7c1-1.6,2.2-3.4,4.6-2.7c2.4,0.6,2.5,2.7,2.6,4.7c0.2,3-1.8,5-3.2,7.4c-6.4,10.5-13.6,20.2-23,28
	c-7.4,6.3-15.6,10.8-25.6,11c-7.3,0.3-13.3-2.3-16.6-9.2c-1-2.3-1.8-5-2.3-7.5c-1.5-8.2-0.3-16.5,0-24.7c0.4-4.4,1.7-8.7,2.6-13
	l1.7-8.4l1.8-10.7c0.5-3,1.3-6,1.4-9c0-4.3-2.7-8-7-9.7c-1.8,3.6-3.4,7.3-5,11l-10,20.2c-2.4,5-5.2,9.8-7.8,14.6
	c-8,14.8-17.4,28.4-31.6,38c-7,4.6-14.6,7.3-22.8,8c-11,1.2-22,0-32.4-4.3c-9.5-3.8-17-10-21.8-19.2c-1-2-2-2.2-3.6-0.2
	c-5.5,6.6-11.3,13-18.6,17.6c-6.3,4-13,6.7-20.6,6.6c-8.3,0-13.8-4.4-17.3-11.7c-2.7-5.7-3.8-11.7-4.3-18c0-0.7-0.3-1.3-0.6-2.4
	c-3.5,4.2-6.6,8-9.7,12c-6,6.8-12.6,12.6-20.7,16.5c-5,2.4-10.4,4-16.2,3.5c-7.4-0.5-12.6-4.5-15.8-11c-3.3-7-4.7-14.4-4.6-22
	c0-6,0-12.2,0.2-18.2c0-3.5,1-7,1.3-10.4c0.2-0.8,0-1.7,0-3.2c-1,0.7-1.7,1-2.2,1.5c-6,5-12.3,9-20,11c-0.6,0.2-1.4,1-1.7,1.8
	c-3.3,10.6-8.3,20.3-15.4,29c-7.8,9.2-17.3,16.3-29,19.6c-13,3.7-25.2,2.4-35.7-6.8c-4.5-3.8-8-8.4-10.2-13.7
	c-0.4-1-1.2-1.5-1.8-2.3c-3.3,3.6-6.4,7-9.7,10.3c-5.4,5.5-11.6,10-19,12.5c-8,2.7-16.2,3.8-23.4-2.3c-3.6-3-5.2-7.2-6-11.5
	c-1.6-8.8-0.4-17.6,0-26.4c0.4-4.2,1.7-8.3,2.5-12.4l1.6-8.3l2-10.6c0.4-3,1.2-6.2,1.3-9.3c0.2-4-2.8-7.8-7-9.3l-5,11
	c-3.2,6.7-6.4,13.5-9.7,20c-2.5,5-5.3,10-8,15c-8,14.5-17.3,27.8-30.7,38c-7.2,5.2-15.2,8.7-24.4,8.2c-7.5-0.6-12.7-4.7-15.8-11.3
	c-2.8-6-4.2-12.2-4.5-18.7c0-0.3,0-0.7-0.2-1c0-0.2-0.2-0.4-0.6-1l-2.5,3c-6,8-12.4,15-20.7,20.6c-6.7,4.4-14,7-21.8,8
	c-11.4,1.3-22.7,0-33.4-4.3c-10.5-4.3-18.6-11.5-23.2-22.3c-3-6.7-4.4-13.6-4.3-21v-7.5c0-1.8-0.7-2-2.3-1.4c-3.6,1.7-7.4,3-11,4.7
	c-0.7,0.3-1.5,1-1.7,2c-3.4,10.5-8.3,20.3-15.4,28.8c-7.6,9.2-17,16.4-28.8,19.5c-13.7,3.6-27,2.7-38.3-7c-4.4-3.8-7-8.8-9-14
	c-4.5-11.6-2.7-23.6-3-35.4l-0.3-4c-1.2,1-2,1.2-2.5,1.7c-5,3.8-10.3,6.7-16.3,8.3c-1,0.2-1.8,1-2,2c-4.7,13.8-11.6,26.3-22.8,36
	c-10.8,9.6-23.3,15.3-38,14c-11.4-1-20.2-6.8-26.3-16.4c-2-3-3.5-6-5.4-9.3c-1,0.8-1.7,1.6-2.4,2.5c-6.6,8-13.7,15.2-23,19.8
	c-6,2.8-12,4.5-18.4,3.6c-6.4-1-11-4.7-13.8-10.4c-1.5-3-2.2-6.7-3.4-10c-0.4-1.3-1-2.5-1.8-4.2l-5.3,5.8c-7.5,8.5-15.7,16.2-26,21
	c-4.7,2.3-6.8,5.6-8.6,9.8c-3.3,7.7-7.3,15-12.3,21.6c-5,7-11,13-19,16.7c-9.7,4.7-20,5.6-30.2,2c-5.3-1.8-9.3-7.5-9.4-13.7
	c0-9,4.2-15.7,10.4-21.4c7.6-7,16.6-11.5,26.6-14l6.3-1.5c2.5-0.6,4-5.2,2.8-8.2c-2.7,1.4-5.4,3-8.3,4c-6.3,2.8-13,3.4-19.6,2.3
	c-8.8-1.5-16.2-5.8-21.5-13.2c-3.6-5-5.7-10.6-7.2-16.7c-1.6-6.6-1.3-13-1-19.4c0-4.8,1.4-9.6,2.4-14.4c0.5-2.7,1-5.5,2-8.2
	c1-3.2,1.8-6.5,3.2-9.6c2.3-5,4.8-10,8-14.8c6.6-10.3,15.6-17.8,27.6-21.2c9.3-2.6,18.5-2.8,27,2.4c2.4,1.5,4.5,3.6,7.2,5.7
	c0.6-1.8,1.3-3.5,1.7-5.4c1-4.4,2.6-8.5,7.7-9.5c3.8-0.7,7.8-1.3,11.6-1c5.2,0.4,10.3,1.6,15,4.3c4.4,2.6,6.8,6.5,3.7,12.3
	c-2.3,4.4-3.5,9.3-5,14c-1.5,5-2.8,10-4,15c-1,3.2-1.3,6.5-2,9.7c-0.7,3.4-1.6,6.7-2.4,10c-0.5,2.6-1,5-1.7,7.5
	c-0.7,3-1.2,6.3-2,9.5l-1.5,7l-4,13.7l-3,10.4l0.3,1.6c0.6,0,1.3,0,1.7-0.4c5-4,10.3-7.7,15-12c4.2-4,8-8.7,11.8-13.4
	c1.3-1.7,2-4.2,2.3-6.4c0.5-3.3,0.2-6.7,0.5-10c0.5-6,1-12,1.8-18l3-17c1.2-5.5,2.7-11,4-16.7c0.7-3,1.2-6,2-9
	c0.6-2.8,1.5-5.5,2.2-8.3l2-6.7c1.5-6,3-12,4.8-18c1.6-5.5,3.6-10.8,5.5-16.2c1.6-4.8,3-9.7,5-14.5c1.8-5,4-9.8,6-14.5
	c1.4-2.6,4.2-3.8,7-4.3c8-1.9,16.7-1.7,25,2.3c1.7,0.8,3.3,2.2,4.7,3.6c2,2,1.7,4,0.5,6.6c-3.4,7-6.7,14.3-9.7,21.6
	c-3,7.4-5.8,15-8.5,22.4c-2,5.3-3.3,10.7-5,16c-1.2,4-2.7,8-4,11.8l-3.5,13.4l-2.5,8.8c-0.6,2-1.2,4.3-1.6,6.5
	c-0.7,3.3-1.2,6.7-2,10l-2.3,12c0,0.4,0,0.7-0.2,1c-0.5,6.3-1.5,12.5-1.4,18.7c0,4.2,1.4,8.4,2.6,12.5c1.2,3.7,5.6,5.7,9.2,4.3
	c6.5-2.5,10.8-7.6,14.3-13.4c0.2-0.4,0-1,0-1.4c0-6.6-1.2-13.4-0.3-19.8c1-7.6,3-15.3,5.8-22.4c5.4-14,12.8-26.7,25-36
	c2.5-2,5.6-3.2,8.7-4.5c3.8-1.6,7,0.2,9.3,3c4,4.8,5.6,10.4,4.6,16.5c-0.2,1.5-1.2,3-2.2,4.4c-4.3,6-7.8,12.7-10,20
	c-1.6,5.2-3,10.5-4.5,15.8c-2.4,8-3.5,16.5-2.7,24.8c0.4,3.8,1.7,7.6,3.4,11c2.4,4.5,8,5.4,11.7,1.7c3.4-3.3,6.3-7.3,8.7-11.4
	c2.5-4,4-8.7,6-13c0.7-2,1.2-4,1.7-6s0-3.8-1.4-5.5c-3-3.5-4.8-7.7-6.2-12.3c-2-7-2-14.3-1-21.3c1.5-9.7,5-18.8,13.6-24.8
	c8.5-6,18.3-3.8,23.6,5.2c5,8.5,6.5,17.8,6.3,27.4l-0.3,15c0,2.4,0.5,2.8,2.8,2c5.2-1.5,10-4,14.2-7.5c0.5-0.4,1-1,1-1.6
	c0.6-2.2,1.2-4.3,1.5-6.4c0.7-4.8,1-9.7,1.8-14.5c0.6-3.6,1.6-7,2.4-10.8c0.5-3,1.2-5.8,2-8.7l2.6-11c1-4.4,2-8.8,3.4-13
	c1-4,2.6-7.8,4-11.6c1-3.3,2-6.5,3.4-9.6c2.2-5.3,4.4-10.7,6.8-16c1.4-3,3.3-5.8,5-8.8c2.4-4.8,6.5-7,11.6-7.3
	c7.8-0.5,15.4,0.6,22.5,4.2c4,2,6,5,5,8.7c-0.6,2-2.3,3.6-3.3,5.5c-3.5,6.3-7,12.5-10.3,19c-2.5,5-4.8,10.3-7,15.6
	c-1.8,4.7-3.3,9.6-5,14.4l-4,11l-3.4,12.3l-2.5,8.5l-1.7,6.2c-0.6,3-1,6.3-1.7,9.5l-2.4,11.6c-0.2,0.4-0.4,0.8-0.4,1.2
	c-1,10-2.6,20.2-1.5,30.3c0.5,3.6,1.7,7.3,3.4,10.6c3,5.6,9.7,6.7,15.3,2.8c5.4-3.7,8.7-9,11.3-15c1.6-3.4,3-7,4.2-10.7
	c0.7-2,1.3-4,1.4-6.2c0-1-1-2.3-1.7-3c-3.5-3.5-5.3-7.8-6.8-12.2c-2-5.7-2-11.8-1.6-17.7c0.5-9.2,3.3-17.6,9-25c3.2-4.2,7.7-7,13-8
	c4-0.8,7.7,0.6,11,3.2c3.6,3,5.8,7,7.5,11.4c3.2,8,3.6,16.3,4,24.6c0,3.8-0.8,7.6-1,11.4c-0.3,2.7,0.5,3.3,3,2.4l9.4-4.3
	c2.6-1.2,2.7-4,3.8-6.2c2.6-5.3,4.6-11,7.5-16c6.2-11,14.8-19.5,26-25c10-4.8,20.4-6.5,31.4-4c9.2,1.8,16.6,6,21.5,14
	c1.8,3,3,6.4,4,9.8c0.8,3.2,1,6.5,1.4,9.8c0,0.2,0.5,0.6,0.7,1L760.7,378.6z M759.3,383.4l-0.6,2.3c-1,4.5-1.8,9-3.5,13.2
	c-2.5,6.4-6,12.4-10.4,17.7c-7.5,8.7-16.7,14.4-28.3,16.3c-5,0.8-9.7,1.3-14.6-0.2c-2-0.5-3,0.3-2.2,2.3l1.6,4.7
	c2.5,6,7,10.5,13.2,12.4c11.4,3.5,22.2,1.7,32-5.3c9-6.4,15.6-15,21-24.5c0.7-1,1.4-2.2,1.6-3.3c0.7-5.2,1-10.4,1.7-15.6
	c0-0.6,0-1,0.2-1.7c0.8-4,1.8-8.2,2.4-12.2c0.4-2.7,0-3-3-3.2c-3.8-0.2-8,1-11.3-2.8L759.3,383.4z M288,424.4c0.6,3.6,1.2,7.4,2,11
	c1.4,8,8,10.4,14.3,5.7c7.2-5.3,11-13,14.3-21c1.4-3.5,2.4-7,3.3-10.7c1-4,2-8.3,2.5-12.6c0.4-3.4,0.5-7,0-10.2
	c-0.6-3.5-1.7-7-3.2-10.3c-1.6-3.4-5.5-4.2-9-2.8c-5.4,2-8.8,6.4-11.8,11c-4.3,6.7-7.4,14-9.3,21.8c-1.5,6-3,11.7-3.3,18L288,424.4z
	 M1073.6,425.9h0.5c0,2.6-0.3,5.3,0.2,7.7c0.7,3,1.7,6,3.3,8.7c2.2,3.4,7.3,3.3,11.5,0.2c5.7-4.3,10-10,13.7-15.8
	c1.6-2.4,3.6-4.8,4.3-7.5c1-4,1.2-8.5,1.8-12.8l1.8-13.4l0.3-1c2-5,1.3-6-4-6c-3,0-6,0.5-8.6-1.6c-0.3-0.3-1.6,0.2-2,0.7
	c-3,3-6.3,4.5-10.5,3.8c-1.2-0.2-2.3,0-3.3-0.2c-1.5-0.2-2.4,0.3-2.8,1.8c-1.4,5.8-3,11.4-4,17.2c-1.3,6-1.7,12-2.4,18L1073.6,425.9
	z M1233.6,370.9v-3c-0.2-5.4-3.5-7.2-8.2-4.6c-5.7,3-9,8.4-11.7,14c-2,3.7-3.6,7.7-5,11.7c-1.6,4.4-2.8,9-4,13.4
	c-1,3-1.2,6.4-2.3,9.4c-0.8,2.2-0.2,3.3,1.7,3.7c1.5,0.2,3.3,0.5,4.4,0c3-1.7,5.8-3.4,8-5.7c5.3-5.2,8.6-11.6,11.4-18.3
	C1230.9,384.9,1233.6,378.3,1233.6,370.9L1233.6,370.9z M730.4,371.4v-4c-0.3-4.8-3.5-6.6-8-4.3c-5.8,3-9,8.4-12,14
	c-2,3.8-3.5,7.8-5,12s-2.8,8.6-4,13c-0.8,3.2-1.2,6.4-2,9.5c-0.8,2.7-0.5,3.6,2.2,4.2c1.2,0.2,2.7,0,4-0.2c4-1,6.7-4,9.3-7
	c4-5.2,7.2-11,9.8-17c2.7-6.6,5.4-13,5.6-20.2H730.4z M285.4,506.8c5.8,0,9.6-2.5,12-6.5c3-4.7,5.5-9.8,8-14.8c0.6-1,0.6-2,1-3
	c-1.2,0-2.5-0.3-3.4,0c-4.5,2.3-9,4.5-13.4,7.2c-4,2.6-7.5,6-9.7,10.5c-1.4,2.6-0.3,5.3,2.5,6L285.4,506.8L285.4,506.8z"/>
</svg>
