<?xml version="1.0" encoding="utf-8"?>
<!-- Generator: Adobe Illustrator 19.0.0, SVG Export Plug-In . SVG Version: 6.00 Build 0)  -->
<svg version="1.1" id="Calque_1" xmlns="http://www.w3.org/2000/svg" xmlns:xlink="http://www.w3.org/1999/xlink" x="0px" y="0px"
	 viewBox="-23 218.4 511.1 125.6" style="enable-background:new -23 218.4 511.1 125.6;" xml:space="preserve">
<style type="text/css">
	.st0{fill:#1377EE;}
</style>
<g id="XMLID_2_">
	<g>
		<path class="st0" d="M483.9,276.1c-0.8,0-5.7,16.9-13.9,16.9c-2.3,0-3.4-1.9-3.4-4.8c0-10.4,9.2-26.4,9.2-30.7
			c0-5.3-5.1-7.5-7.8-7.5c-4,0-4.8,6.9-8.6,6.9c-5.2,0-1.7-9.4,0.8-12.3c2.5-2.9,0.5-9.6-6.5-9.6c-2.7,0-4.9,2.1-6.2,4.3
			c-2.2,3.9-4.9,10.7-4.9,17.5c0,2.5,0.4,4.5,0.9,6.2c0.2,4.8-1.3,10-3,14.4c-0.1,0.1-0.2,0.1-0.3,0.3c-3.9,8.8-10,19-21.2,19
			c-4.9,0-9.4-1.7-10.9-6.5c7.7,0.8,26.4-11.3,27.4-27.8c0.4-8.4-4.5-15.2-13.2-15.2c-10.9,0-25.5,12.3-28.1,32.5
			c-2.5,5-7.3,13.3-13,13.3c-2.2,0-4.4-1.9-4.4-4.8c0-4,1.4-10,3.4-16.6c3.2,0.3,6,0.5,7.5,0.8c2.1,0.3,2.6-7.5,2.2-9.2
			c-0.4-1.2-1.4-1.9-2.6-2.2c-0.5-0.3-1.8-0.4-3.5-0.5c3.9-11.2,9.9-25.4,9.9-27.6c0-5.5-4.9-7.7-7.8-7.7c-2.2,0-4,2.3-5.2,5.2
			c-1,2.2-7.3,17.1-11.1,30.1c0,0,0,0,0,0c0,0-12.6-0.6-15.4-0.2c-0.4-0.8,7.9-21,7.9-23.2c0-5.5-4.9-7.7-7.8-7.7
			c-2.2,0-4,2-5.2,4.9c-1,2.1-5,12.3-8.7,24.3c-0.1,0.2-0.1,0.3-0.2,0.5c-0.2,0.5-0.3,0.9-0.5,1.4c-1.3,0.1-3.4,0.2-4.4,0.4
			c-2.5,0.4-3.5,1.2-3.6,5.2c0,1.4,0.1,4,0.6,5.1c-0.2,0.1-0.4,0.3-0.7,0.4c-1.3,0.8-2.7,1.5-4,2.1c0.1-1.3,0.2-2.6,0.2-3.9
			c0-14.8-8.4-22.3-17.1-22.3c-12.6,0-25.9,13.4-28,33.1c-2.3,5-6.3,12.7-11.9,12.7c-2.3,0-3.4-1.9-3.4-4.8
			c0-10.4,9.2-26.4,9.2-30.7c0-5.3-5.1-7.5-7.8-7.5c-4,0-4.8,6.9-8.6,6.9c-5.2,0-1.7-9.4,0.8-12.3c2.5-2.9,0.5-9.6-6.5-9.6
			c-2.7,0-4.9,2.1-6.2,4.3c-2.2,3.9-4.9,10.7-4.9,17.5c0,2.5,0.4,4.5,0.9,6.2c0.2,5.9-2.1,12.5-4.2,17.3c-2.6,5-7.2,12.7-12.7,12.7
			c-2.2,0-4.4-1.9-4.4-4.8c0-4,1.4-10,3.4-16.6c3.2,0.3,6,0.5,7.5,0.8c2.1,0.3,2.6-7.5,2.2-9.2c-0.4-1.2-1.4-1.9-2.6-2.2
			c-0.5-0.3-1.8-0.4-3.5-0.5c3.9-11.2,11.9-28.4,11.9-30.6c0-5.5-4.9-7.7-7.8-7.7c-2.2,0-4,2.1-5.2,4.9c-1,2.2-9.5,20.4-13.2,33.2
			c-1.3,0.1-1.8,0-2.8,0.3c-1.6,0.3-2.1,1.4-3.3,5.2c-0.8,2.9-0.2,5.9,0.9,5.7c0.9-0.1,1.1,0,2-0.1c-0.2,1-0.4,2-0.7,3
			c-1.6,7.3-2.2,14.2-2.2,19.3c0,1.5,0.1,2.9,0.4,4.2c1.6,5.6,6,9.6,12.1,9.6c7.4,0,14.8-6.4,19.4-13.2c0.2-0.1,0.3-0.3,0.4-0.5
			c0.3-0.5,0.6-1,0.8-1.5c0.9-1.5,1.7-3,2.2-4.4c2.6-5.5,4.9-12.5,5.9-18.5h1c3.2,0,5.6-1.4,7.5-3.1c-2.5,7.8-5.8,17.9-5.8,26.5
			c0,8.2,4,14.7,11.8,14.7c7,0,13.7-5.8,18.1-12.2c2.5,7.7,8.4,12,16.8,12c8.4,0,16.5-5.9,21.3-14.8c2.9-5.1,3.9-7.9,4.4-10.4
			c3.3-0.8,6.4-2.1,9.2-3.6l-1.7,9.7c-0.1,1.6-0.2,3.1-0.2,4.5c0,8.2,5.1,14.7,12.9,14.7c6.3,0,12.7-4.7,17.3-10.3
			c1.5,6,6,10.3,12.3,10.3c7.2,0,14.5-6.1,19.2-12.8c3.2,9.2,11.5,14.6,20.2,14.6c12.6,0,20.5-6.8,25.5-15c0.2-0.1,0.3-0.2,0.4-0.4
			c3.6-6.2,7.5-15.5,9-24.5h1c3.2,0,5.6-1.4,7.5-3.1c-2.5,7.8-5.8,17.9-5.8,26.5c0,8.2,4,14.7,11.8,14.7c11.9,0,23.1-16.9,23.1-24.8
			C487.9,278.7,485.7,276.1,483.9,276.1z M421.1,260.6c1.2,0,1.7,0.9,1.6,2.2c-0.4,6.5-9.5,14.3-14.2,14.3
			C411.3,266,418.6,260.6,421.1,260.6z M311.7,284.3c-3,6.2-7.1,11-10.5,11c-3.9,0-5.2-3.5-5.2-8.6c0-5.1,1.2-10.2,3.1-14.7
			c0.3,0.5,0.6,1.1,1,1.6c2.8,5.2,7.4,7.9,12.5,9C312.3,283.2,312,283.7,311.7,284.3z M315.6,271.7c-0.2,1.1-0.4,2.1-0.5,2.9
			c-5.4-1.2-9.8-4.8-11.2-10.6c2.2-2.5,4.5-4,6.7-4c4.2,0,5.3,4.4,5.3,7.8C316,269.1,315.8,270.4,315.6,271.7z M366.3,271.3
			c-0.7,2.8-1.3,5.6-1.8,8.3c-2.5,4.9-7.3,13.4-13,13.4c-2.2,0-4.4-1.9-4.4-4.8c0-4,1.7-11.3,3.6-17.9c3.5-0.7,14.4-0.5,16-0.4
			c0,0,0,0,0,0L366.3,271.3z M206,287.8c-3.7,5-8.7,8.9-15.5,8.9c-4.9,0-9.4-1.7-10.9-6.5c7.7,0.8,26.4-11.3,27.4-27.8
			c0.4-8.4-4.5-15.2-13.2-15.2c-10.1,0-23.2,10.5-27.3,28c-2.1,3.1-4.8,5.7-8,5.7c-0.5,0-1,0-1.4-0.3c1.2-4.3,1.8-9,1.8-13.6
			c0-12.7-6-19.7-13.6-19.7c-2.6,0-4.9,0.8-7.1,2.2c3-10.8,5.7-19.5,7-23.1c1.7-4.9-4.9-7.7-7.8-7.7c-2.2,0-4,2.1-5.2,4.9
			c-1,2.1-4.7,15.2-8.6,30.4c-0.6,1.7-1.1,3.4-1.7,5c-0.8,2.2-1.6,4.4-3,7c-1.4,2.5-3,4.2-5.6,5.5c-1.2,0.8-2.5,1.4-3.8,2
			c0.1-1.2,0.1-2.3,0.1-3.8c0-14.8-8.4-22.3-17.1-22.3c-12.6,0-25.8,13.3-28,33c-2.4,5-6.7,12.9-12.9,12.9c-5.5,0-7.9-1.6-7.9-7.8
			c0,0,25.9-29.4,25.9-55c0-6-2.9-11.7-7.9-11.7c-14.2,0-30.9,40.3-31.8,67.1c-3.8,7.5-15.3,15.9-15.3,15.9
			c4.7-16.9,10.3-40.7,10.3-44.1c0-5.3-4.9-7.5-7.8-7.5c-2.1,0-3.9,2.1-5.2,4.9c-0.1,0.1-0.1,0.3-0.3,0.5c-1.4-4.3-4.9-8.3-10-8.3
			c-12.1,0-24.5,19-24.5,40.3c0,12.9,5.2,20,12.9,20c4.4,0,8.2-2.5,11.6-6c-0.8,3.4-0.8,3.6-1.6,6.6c-10.6,6.4-21.8,10.1-21.8,23
			c0,8.4,6,13.1,12.7,13.1c9,0,17.5-18.4,20-31.6c5.1-4.1,13.1-7.9,20.3-17.2c0.4,6.5,7.9,12.1,14.5,12.1c7.9,0,15.2-5.9,19.9-12.4
			c2.5,7.8,8.4,12.2,16.9,12.2c8.4,0,18.7-9.1,21.3-14.8c2-4.4,3.4-7,4.3-10.4c3.5-0.9,6.8-2.3,9.7-3.9l-2.3,10.2
			c-0.7,3.2-1.2,6.2-1.6,8.8c-1,6-0.9,10.3,5.8,10.3c3,0,4.9-2.2,5.6-5.1c1.8,2.9,4.7,5.1,8.4,5.1c6.1,0,12.5-4.8,17.3-12.3
			c0.8,0.1,1.6,0.1,2.5,0.1c4.3,0,8.6-2.2,12.2-5.5c1.6,12.1,11.2,19.5,21.3,19.5c8.9,0,15.5-3.4,20.3-8.3c-0.8-2.1-1.3-4.8-1.3-8.1
			C205.8,291.2,205.9,289.5,206,287.8z M192.6,260.6c1.2,0,1.7,0.9,1.6,2.2c-0.4,6.5-9.5,14.3-14.2,14.3
			C182.7,266,190,260.6,192.6,260.6z M60.9,231.6c3,0-4.3,23.7-16.8,40.7C47.6,254.9,56.9,231.6,60.9,231.6z M-11.2,335
			c-1.4,0-2.2-2.2-2.2-3.9c0-8.2,6.7-11,10.7-12.8C-4.5,327.4-8.5,335-11.2,335z M4.5,275.9c-1.8,6.9-5.5,15.5-9.6,15.5
			c-2.5,0-3.8-3-3.8-6.9c0-11.8,6.9-23.9,11.9-23.9C7.1,260.6,6.6,268.2,4.5,275.9z M93.2,284.5c-3,6.1-7.1,10.8-10.4,10.8
			c-3.9,0-5.2-3.5-5.2-8.6c0-5,1.2-10.1,3-14.5c0.3,0.5,0.6,0.9,0.9,1.4c2.8,5.2,7.3,7.9,12.5,9C93.5,283.8,93.2,284.5,93.2,284.5z
			 M97.3,271.5c-0.2,1-0.4,2-0.7,3c-5.4-1.2-9.7-4.8-11.2-10.5c2.2-2.6,4.6-4.2,6.9-4.2c4.2,0,5.3,4.4,5.3,7.8
			C97.6,269.1,97.6,270,97.3,271.5z M144.9,273.7c-0.8,3.8-1.4,5.9-1.4,5.9s-0.8,2.3-1.9,4.6c-2.7,5.7-6.4,9.7-9.4,9.7
			c-3.6,0-3.9-5.3-2.9-11.7l1.9-7.8c2.2-7.1,5.8-14.7,10-14.7c2.6,0,4.2,3.4,4.2,7.7C145.4,269.5,145.3,271.6,144.9,273.7z"/>
	</g>
</g>
</svg>
