<svg id="Calque_1" xmlns="http://www.w3.org/2000/svg" viewBox="0 0 745.6 184.9"><style>.st0{fill:#FFFFFF;}</style><path class="st0" d="M565.5 62c6.2 1.2 8.4-4.3 10.2-9.8.6-1.5 1.1-3 1.6-4.5 3.3-9 6.5-18 10-27 1.6-4.2 4.6-5.6 7.9-5.1 5 .8 8.5 4 9.4 8.1.9 4.2-.6 8-1.9 11.8-2.7 8-5.7 15.8-8.5 23.7-.5 1.5 0 2.1 1.6 2.4 6.8 1.4 8.1 3.5 6.5 10.3-1.7 7.2-1.7 7.2-9.1 6.5-.8-.1-1.6-.2-2.5-.3-1.9-.2-2.9.6-3.4 2.4-.7 3.1-1.8 6.1-2.4 9.3-.7 4.1-1.4 8.3-1.6 12.5-.2 5.1 4.9 8.3 9.6 6.4 5.4-2.1 8.4-6.6 11.6-11.1 2.6-3.7 3.4-8 4.2-12.3 1.4-8.2 4.5-15.8 9.1-22.8 5.5-8.4 12.5-15.1 22-19 9.6-3.9 19.5-1.9 24.9 5.7 1.9 2.6 3.2 6.1 3.6 9.3 1.8 15.2-5.5 26.5-16.3 36-6.4 5.6-13.5 9.9-22.2 10.9-.2 0-.4.3-.6.4 1.2 4.7 5.7 8 11.8 8.7 9.7 1.2 17.8-2.2 23.7-9.6 3.9-4.8 7-10.3 9.8-15.7 3.9-7.3 6.3-15.2 5.9-23.7-.2-4.4-1.4-8.8-1.1-13.1.7-8.6 3.2-16.7 8-24 2.2-3.3 5.3-5.4 9.5-5 4.6.5 7.7 2.9 9.5 7.3 1.1 2.8-.2 4.8-1.5 6.9-2.7 4.4-5.1 8.8-4.5 14.1.1 1.4 1 3.2 2.1 3.7s3.2.1 4.2-.7c1.6-1.1 2.8-2.9 3.9-4.5 4.7-6.6 12.6-5.7 16.3 1.6 2.1 4.1.9 7.7-.5 11.4-3.2 8.7-6.7 17.2-9.8 25.9-1.8 5-2.2 10.2-1.8 15.5.3 3.6 3.6 5.5 7.4 4.1 3.8-1.4 6.6-4.1 8.6-7.4 2.9-4.8 5.3-9.8 7.9-14.8 1.1-2.1 2.4-2.6 3.9-.7 1.3 1.6 2.3 3.6 2.7 5.5 1 5.8-1.2 11-3.9 16-5 8.9-11.4 16.5-20.9 20.9-9.5 4.4-18.4 1.6-23.4-7.2-2.6-4.6-2.5-9.7-2.4-14.8.3-10.8 3.4-20.9 6.7-31 .4-1.3.6-2.7 1-4.6-2 .9-3.6 2.2-5.2 2.2-6 0-7.4 3.6-8.8 8.7-2.1 7.9-4.7 15.8-8.2 23.1-5.8 12.1-14.3 21.7-27.7 26.2-13.9 4.7-28.3 1.2-37.5-9.5-1.5-1.7-2.5-3.8-3.8-5.7-.5-.8-1.1-1.6-1.6-2.3-3.9 3.6-7.4 7.5-11.5 10.5-3.5 2.5-7.6 4.5-11.8 5.8-7.5 2.3-15.9-1.6-20-8.7-.7-1.3-1.4-2.6-2.3-4.2-1 .9-1.8 1.5-2.5 2.3-4.8 4.6-9.9 8.4-16.4 10.4-9.4 2.9-20.1-2.1-23-12.5-.8-2.9-.9-5.9-1.3-8.9-.1-1.1-.2-2.3-.3-3.7-3.3 1.3-6.2 2.6-9.2 3.7-.6.2-1.3.6-1.8.5-4.7-.6-6.6 2.5-8.9 5.8-5.2 7.3-11.9 12.6-20.9 15-12.9 3.4-25.1-2.3-30.6-14.4-.2-.5-.5-.9-.9-1.8-1 1.1-1.7 1.9-2.5 2.8-5.1 6.1-10.9 11.2-18.7 13.5-9.1 2.7-17.8-1.6-20.6-10.7-1.1-3.7-1.6-7.7-1.6-11.6 0-11 3.2-21.5 6.6-31.8.4-1.4.7-2.8.9-4.1-3.8 1-7.6 2-11.3 3.2-.6.2-1 1.2-1.3 1.9-2.7 9-4.6 18.3-8.3 26.9-5.2 11.9-13.7 21.5-26.5 25.8-10.3 3.5-19-.8-23.5-10.8-.2-.5-.5-.9-1.2-2.3-.9 1.3-1.5 2.4-2.3 3.3-9.3 10-20.9 14.8-34.5 13.3-12.6-1.3-21.4-8.2-26.1-20.1-.7-1.7-1-3.5-1.6-5.2-.6-1.8-1.4-2.6-3.3-1.1-4.9 3.8-10.4 6.2-16.8 6.1-1.1 0-2.6 1.2-3.4 2.3-4.3 5.6-9 10.7-15.5 13.8-7.2 3.4-13.4 2.4-18.9-3.2-1.4-1.5-2.1-1.2-3 .5-2.7 4.9-9.2 6.3-13.5 2.9-1-.8-2.2-2.2-2.2-3.3 0-4.4.4-8.8.7-13.1.2-2.2.6-4.4.9-7.3-3 1.2-5.3 2.2-7.7 3.1-.9.3-1.8.8-2.6.7-4.7-.6-6.6 2.6-8.9 5.8-5.3 7.4-12.1 12.8-21.1 15-10.8 2.7-25.1-1-30.5-15-.1-.3-.3-.6-.7-1.4-.9.8-1.7 1.4-2.4 2.2-5.4 6.1-11.3 11.4-19.3 13.7-11.6 3.3-20.5 0-27.6-10.3-.9 1-1.8 1.8-2.5 2.8-5.9 7.7-12.2 15-20.7 20-2 1.2-4.2 2.3-6.5 3-2.6.8-3.5 2.5-4.2 4.9-3.2 10.1-6.5 20-13.2 28.5-8.7 11.9-24.7 7.4-29.4-3.3-2-4.5-2.4-9.2-1.4-14.2C4.1 149.2 12.1 144 21.5 140c2.7-1.1 5.5-2.1 8.3-3 2.1-.7 3.3-1.9 3.6-4.3.4-3.2 1.4-6.3 2.2-9.5-.2-.1-.3-.3-.5-.4-.8.6-1.7 1.2-2.5 1.9-3.5 2.8-7.3 5.1-11.8 5.6-8 .8-15.4-4.4-18.1-12.5-3.2-9.7-3.2-19.5-1.6-29.6 1.7-10.6 5-20.4 10.8-29.4 4.7-7.3 10.3-13.6 19-16.4 7.1-2.3 13.9.3 17.8 6.8.7 1.1 1.3 2.2 2.2 3.6.7-.9 1.1-1.6 1.5-2.2 4.4-6.7 12.7-6.4 16.4.9 1.1 2.1 1.5 4.8 1.2 7.1-.6 4.5-1.9 8.9-2.9 13.4-1.1 4.6-2.3 9.2-3.5 13.8-1.1 4.4-2.3 8.8-3.5 13.2-1.5 5.7-3 11.3-4.5 17-.7 2.6-1.5 5.3-2.1 7.9-.2.9-.3 1.9-.5 3.6 1.6-.9 2.7-1.4 3.6-2 8.8-6.6 14.5-15.8 20-25 .2-.4.3-.9.4-1.3.5-4.8.7-9.7 1.4-14.5.9-6 2.1-12.1 3.6-18 1.6-6.6 3.4-13.1 5.7-19.4 5.2-14.6 11.4-28.7 22.4-40 2.3-2.3 5.1-4.3 8-5.8 7-3.6 13.7-.3 16 7.2 1.9 6.4 1.4 12.6.3 19-2.3 14-7.6 26.7-14.6 38.9-5.3 9.2-11.8 17.6-19.3 25.1-1.6 1.6-4.1 2.9-3.4 5.8 1 4.1 1.7 8.4 6.1 10.5 4.1 2 8.3 2 12.1-.6 6.1-4.2 10.2-10 12.3-17.1 2.1-7.4 3.2-15 6.7-22 5.5-10.9 12.9-19.9 24.5-24.7 13.1-5.4 26.9.4 32.4 13.5 2.6 6.2 3.1 12.6 3 19.2-.1 3.5-.2 7-.4 10.5-.2 2.1.6 2.7 2.6 2.3 4.5-.8 10.1-6.5 11.1-10.9 2-8.2 4.2-16.3 6.3-24.4 1.9-7.4 3.6-14.9 5.8-22.3 2.4-8.4 5.1-16.8 7.9-25.1 1.1-3.3 3.3-6.2 7.4-6.1 4.5.1 8.4 2 10.5 6 .9 1.7.7 4.2.2 6.1-2.7 9.2-5.8 18.3-8.6 27.4-.3 1.1-.3 2.3-.5 4 1.3-.4 2.1-.7 2.9-1 10.1-3.5 19.9 1 23.8 11 3.7 9.6 3.5 19.4 1.7 29.2-.4 2-.9 4-.9 6 0 .5 1.4 1.6 2.1 1.6 4.9-.4 8.4-3.3 10.6-7.5 1.8-3.5 2.6-7.4 4.1-11 5.6-12.8 13.9-23.1 27.2-28.7 10.5-4.4 21.7-1.1 26.4 8 3.3 6.4 3.1 13.2 1.1 19.8-4.5 15.3-15.1 25.3-29.3 31.8-2.9 1.3-6.1 1.8-9.3 2.8 2.1 5.7 6.7 7.8 12.1 8.5 9.3 1.3 17-2.2 23.3-8.8 4.7-5 8.3-10.8 10.5-17.2.9-2.6 1.2-5.3 1.7-8 .3-1.7-.1-2.9-2.3-2.7-2 .1-2.8-1.3-2.9-3-.1-2.6-.2-5.2 0-7.7.2-3 2.4-4.6 6.2-5.1 4.2-.6 4.5-1.1 5.7-5.2 1.6-5.5 3.4-11 5.4-16.4 2.4-6.5 5-13 7.8-19.3 1.9-4.2 4.6-5.6 7.9-5.1 5 .8 8.6 4 9.5 8 1 4.3-.7 8.2-2 12-2.7 7.9-5.6 15.7-8.4 23.5-.5 1.5 0 2.1 1.6 2.5 6.8 1.5 8.1 3.6 6.5 10.3-1.7 7.2-1.7 7.2-9.1 6.5-.8-.1-1.6-.2-2.5-.3-1.9-.2-2.9.6-3.4 2.4-.7 3.1-1.8 6.1-2.4 9.3-.7 4.1-1.4 8.3-1.6 12.5-.2 5.1 4.9 8.3 9.6 6.4 4.6-1.8 8-5.1 10.1-9.4 3.4-6.9 6.7-13.9 9.1-21.1 1.9-5.5 2.5-11.2.9-17.3-1-4-.1-8.5.4-12.8.7-6.2 3-11.8 5.8-17.4 3.1-6.2 8.5-8.7 14.5-6.4 5.6 2.1 7.7 8.4 4.5 13.4-2.8 4.4-5 9-4.6 14.4.2 3.4 3.2 5.1 6 3.1 1.7-1.3 3.1-3.1 4.4-4.9 4.7-6.5 12.6-5.7 16.4 1.6 2 4 1 7.5-.4 11.1-3.2 8.7-6.6 17.3-9.8 25.9-1.9 5.2-2.3 10.6-1.8 16 .3 3.4 3.9 5.5 7.3 3.7 3.1-1.6 6.1-3.9 8.2-6.7 4.1-5.2 6.1-11.3 7.5-18 3.5-16.5 11-30.8 26.7-39.1 14.7-7.7 29.4-2 35.6 13.4 2.4 5.8 2.6 11.8 2.6 17.8 0 3.6-.1 7.2-.4 10.8-.1 2 .7 2.6 2.4 2.2 4.4-1.1 7.6-3.7 9.6-7.7 1.1-2.2.2-3.1-2.2-3.9-1.1-.4-2.4-2-2.6-3.2-.4-2.3-.3-4.8-.1-7.2.2-3.2 2.3-4.9 6.2-5.5 4.4-.6 4.5-1.1 5.8-5.4 1.5-5.5 3.3-10.8 5.3-16.2 2.5-6.6 5.1-13.1 7.9-19.6 1.7-3.9 4.6-5.4 7.8-4.9 4.8.8 8.5 3.9 9.5 7.7 1.1 4.3-.5 8.2-1.8 12.1-1.8 5.3-3.7 10.6-5.7 15.8-.2.7-.5 1.3-.7 2-.5 1.1-1.1 2.5-1.5 3.9-.9 1.7-1 3.1.4 3.9.8.3 1.7.4 2.7.5 2.9.6 5.1.6 8 .4.6.1 1.4.1 1.4.1zm-4.8 17.2c-4.4-.5-8.9-1.6-13.4.6-1.1.6-2 1.4-2.7 2.5-.7 1.1-1.2 2.6-1.4 4.5-.1.5-.3 1-.4 1.5-.1.5-.2 1-.3 1.6-.8 4.1-1.4 8.3-1.6 12.5-.2 5.1 4.8 8.3 9.6 6.5 4.1-1.6 6.8-4.5 9.2-7.7l2.4-3.3c.9-1 1.7-2.2 2.3-3.5.7-1.3 1.2-2.8 1.6-4.3.2-3.5 1.3-11.3-5.4-10.7.4-.2.1-.2.1-.2zm-94.5 21.5c.3 1.6.7 4.2 1.4 6.7 1.4 5.2 6.2 7.4 10.4 4.2 1.6-1.2 3.1-2.4 4.5-3.8.3-.3.6-.5.8-.8l.9-.9c.3-.3.6-.6.8-.9 8.2-11.1 12.7-23.3 10.6-37.6l-.3-1.2c-1.4-5.2-5.9-7.9-10.9-5.1-2.7 1.6-5.3 3.8-7.2 6.2-7.1 9.5-10.1 20.5-11 33.2zm-318.7-1.2c0 1.5-.1 3 0 4.4.1 1.2.7 2.3 1 3.4 1.5 5.2 6.2 7.5 10.4 4.4 3.2-2.4 6.3-5.1 8.4-8.3.2-.3.4-.6.5-.9 6.1-8.4 9.4-19.5 9-30.6v-.8c0-1.1-.1-2.2-.3-3.3-1-6.1-5.8-9.7-11.6-6.3-2.6 1.5-4.9 3.6-6.7 6-7.1 9.4-10 20.4-10.7 32zm98.4-26.6h.2c-.1-2.1 0-4.3-.3-6.3-.4-2.7-1.6-5.2-4.4-6.2-2.6-.9-4.7.6-6.3 2.4-1.5 1.6-2.9 3.4-3.9 5.3-3.2 5.9-5.3 12.2-6.9 18.7-1.4 5.7-3 11.4-2.3 17.3.2 1.9 1.5 4.2 3 5.5 2 1.8 4.6 1 6.5-.8 1.8-1.7 3.5-3.4 4.9-5.2.2-.3.5-.6.7-.9 4.3-7.4 7.6-15.2 8.6-23.8.1-.4.1-.9.1-1.3.1-.9.1-1.7.2-2.6v-1c-.1-.4-.1-.8-.1-1.1zM42.6 71.3c0-1.7.1-3.5 0-5.2-.4-4.4-3.7-6.3-7.3-3.6-2.8 2.1-5.2 5-7.1 7.9-3.1 4.8-5.3 10.1-5.9 15.8-.5 4.6-1 9.3-1 13.9 0 2.7 1.1 5.4 3.9 6.4 2.9 1 4.9-.8 6.6-2.8 1-1.1 1.9-2.3 2.6-3.6 4.8-9 7.7-18.6 8.2-28.8zM99.7 74c.3.1.6.3.9.4.9-1.1 1.9-2.1 2.7-3.2 7.9-12 14.1-24.8 18.6-38.5 1.1-3.4 1.5-7.1 2.1-10.7.1-.8-.6-1.8-.9-2.7-.9.4-2 .6-2.5 1.3-1.4 1.6-2.8 3.3-3.6 5.2-3.4 7.7-6.9 15.3-9.7 23.2-3 8.2-5.1 16.7-7.6 25zm550.6-8.9c-.4-3.6-2.1-4.6-5.2-3.1-.9.4-1.8 1-2.6 1.6-6.4 4.8-10 11.6-12.6 18.9-.3.8.1 1.9.2 2.9 1-.1 2 0 2.9-.3 6.4-2.9 11.2-7.6 14.6-13.6 1.2-2.1 1.9-4.3 2.7-6.4zM317.9 65c-.3-3.5-2-4.6-5.1-3-.7.4-1.5.8-2.1 1.3-6.6 4.9-10.4 11.8-13 19.3-.3.8-.2 2.3.3 2.5.7.4 2 .3 2.8-.1 6.8-3.1 11.8-8.1 15.3-14.6.8-1.6 1.2-3.6 1.8-5.4zM26.8 155.2c-.3-.2-.7-.4-1-.5-4.3 2.3-8.5 4.9-10.9 9.5-1.2 2.3-.5 5.9 1.2 6.7 2.7 1.3 4.2-.6 5.3-2.5 1.5-2.5 2.7-5.2 3.8-7.9.7-1.6 1.1-3.5 1.6-5.3z"/></svg>